<?xml version="1.0" encoding="utf-8"?>
<!-- Generator: Adobe Illustrator 28.0.0, SVG Export Plug-In . SVG Version: 6.00 Build 0)  -->
<svg version="1.1" id="Layer_2_00000106128260481780525350000002828923620560581303_"
	 xmlns="http://www.w3.org/2000/svg" xmlns:xlink="http://www.w3.org/1999/xlink" x="0px" y="0px" viewBox="0 0 2447.8 1726.8"
	 style="enable-background:new 0 0 2447.8 1726.8;" xml:space="preserve">
<style type="text/css">
	.st0{fill-rule:evenodd;clip-rule:evenodd;fill:#00643C;}
	.st1{enable-background:new    ;}
	.st2{fill:#00643C;}
	.st3{fill:#212121;}
</style>
<g id="Layer_1-2">
	<g>
		<path class="st0" d="M741.8,361l-1.2-181.3l-203.5-1.3l-1.9,347.4L58.8,900.2l238.9,0.9c52,0,69.3-28.5,125.5-71.5l564-434.9
			c56.6-41.9,179.1-144.9,227.1-174.6l750.3,581.8c125.1,110.6,98.3,95.4,174.9,95l230.2,4.3c-17.5-24-108.8-89.5-139.2-112.2
			L1214.2,0C1174.2,20,771.8,349.4,741.8,361"/>
	</g>
	<g>
		<path class="st0" d="M1171.8,793.3c-125.9-40.1-151.5-286.9-27.6-369.8c28.2-18.9,39.6-14.9,50-21.6l0.1-35.1
			c-87.3,0.7-162.1,119.1-160.1,240.5c1.1,64.1,22.3,119.5,48.5,157.4c20.3,29.4,73.6,77.3,115.7,71.4
			c2.7-61.6,14.3-111.8,14.3-176.8c0-32-7.7-153.2-18.2-171.7c-7.5-13.4-22.7-9.2-25,6.8l14.5,125
			C1185.8,654.7,1182.6,769.1,1171.8,793.3"/>
	</g>
	<g>
		<path class="st0" d="M1252.2,412.1c125.9,40.1,151.4,286.9,27.6,369.8c-28.2,18.8-39.6,14.9-50,21.7l-0.1,35.1
			c87.3-0.7,162.1-119,160.1-240.5c-1.1-64.1-22.3-119.5-48.5-157.4c-20.3-29.4-73.6-77.3-115.7-71.4
			c-2.7,61.6-14.3,111.8-14.3,176.8c0,32,7.7,153.2,18.2,171.7c7.5,13.4,22.7,9.2,25-6.8l-14.5-125
			C1238.2,550.7,1241.4,436.3,1252.2,412.1"/>
	</g>
	<g class="st1">
		<path class="st2" d="M50.2,1002.9h85.3v166.7h147.5v-166.7h85v441.8h-85V1251H135.5v193.7H50.2V1002.9z"/>
	</g>
	<g class="st1">
		<path class="st2" d="M504.6,1359.1c13,0,24.1,4.6,33.3,13.7c9.2,9.1,13.8,20.2,13.8,33.2c0,13-4.6,24.1-13.8,33.3
			c-9.2,9.2-20.3,13.8-33.3,13.8c-13,0-24.1-4.6-33.3-13.8c-9.2-9.2-13.8-20.3-13.8-33.3c0-13,4.6-24.1,13.8-33.2
			C480.5,1363.7,491.6,1359.1,504.6,1359.1z"/>
	</g>
	<g class="st1">
		<path class="st2" d="M849.6,991.8c62.5,0,116.3,22.6,161.2,67.9c45,45.3,67.5,100.4,67.5,165.5c0,64.5-22.2,119-66.6,163.7
			c-44.4,44.7-98.2,67-161.6,67c-66.3,0-121.4-22.9-165.3-68.8c-43.9-45.9-65.8-100.3-65.8-163.4c0-42.2,10.2-81.1,30.7-116.5
			s48.5-63.5,84.3-84.3C769.8,1002.2,808.3,991.8,849.6,991.8z M848.7,1074.1c-40.9,0-75.3,14.2-103.1,42.7
			c-27.9,28.4-41.8,64.6-41.8,108.4c0,48.9,17.5,87.5,52.6,115.9c27.3,22.2,58.5,33.3,93.8,33.3c39.9,0,73.9-14.4,101.9-43.3
			c28.1-28.8,42.1-64.4,42.1-106.6c0-42.1-14.1-77.6-42.4-106.8C923.6,1088.7,889.2,1074.1,848.7,1074.1z"/>
	</g>
	<g class="st1">
		<path class="st2" d="M1193.4,1359.1c13,0,24.1,4.6,33.3,13.7c9.2,9.1,13.8,20.2,13.8,33.2c0,13-4.6,24.1-13.8,33.3
			c-9.2,9.2-20.3,13.8-33.3,13.8c-13,0-24.1-4.6-33.3-13.8c-9.2-9.2-13.8-20.3-13.8-33.3c0-13,4.6-24.1,13.8-33.2
			C1169.2,1363.7,1180.3,1359.1,1193.4,1359.1z"/>
	</g>
	<g class="st1">
		<path class="st2" d="M1735.9,1080.6l-58.8,56.1c-40-42.3-85-63.4-135-63.4c-42.2,0-77.8,14.4-106.7,43.3s-43.4,64.4-43.4,106.7
			c0,29.5,6.4,55.6,19.2,78.5c12.8,22.9,30.9,40.8,54.3,53.8c23.4,13,49.4,19.5,78,19.5c24.4,0,46.7-4.6,66.9-13.7
			c20.2-9.1,42.4-25.7,66.6-49.8l57,59.5c-32.6,31.9-63.5,53.9-92.5,66.3c-29,12.3-62.2,18.5-99.4,18.5
			c-68.7,0-124.9-21.8-168.7-65.3c-43.8-43.6-65.6-99.4-65.6-167.5c0-44.1,10-83.2,29.9-117.4c19.9-34.2,48.5-61.8,85.6-82.6
			c37.1-20.8,77.1-31.2,120-31.2c36.4,0,71.5,7.7,105.3,23.1C1682.3,1030.3,1711.4,1052.2,1735.9,1080.6z"/>
	</g>
	<g class="st1">
		<path class="st2" d="M1845.2,1359.1c13,0,24.1,4.6,33.3,13.7c9.2,9.1,13.8,20.2,13.8,33.2c0,13-4.6,24.1-13.8,33.3
			c-9.2,9.2-20.3,13.8-33.3,13.8c-13,0-24.1-4.6-33.3-13.8c-9.2-9.2-13.8-20.3-13.8-33.3c0-13,4.6-24.1,13.8-33.2
			C1821.1,1363.7,1832.2,1359.1,1845.2,1359.1z"/>
	</g>
	<g class="st1">
		<path class="st2" d="M2190.2,991.8c62.5,0,116.3,22.6,161.2,67.9c45,45.3,67.5,100.4,67.5,165.5c0,64.5-22.2,119-66.6,163.7
			c-44.4,44.7-98.2,67-161.6,67c-66.3,0-121.4-22.9-165.3-68.8c-43.9-45.9-65.8-100.3-65.8-163.4c0-42.2,10.2-81.1,30.7-116.5
			s48.5-63.5,84.3-84.3C2110.4,1002.2,2148.9,991.8,2190.2,991.8z M2189.3,1074.1c-40.9,0-75.3,14.2-103.1,42.7
			c-27.9,28.4-41.8,64.6-41.8,108.4c0,48.9,17.5,87.5,52.6,115.9c27.3,22.2,58.5,33.3,93.8,33.3c39.9,0,73.9-14.4,101.9-43.3
			c28.1-28.8,42.1-64.4,42.1-106.6c0-42.1-14.1-77.6-42.4-106.8C2264.2,1088.7,2229.8,1074.1,2189.3,1074.1z"/>
	</g>
	<g class="st1">
		<path class="st3" d="M99.8,1532.8h10.9c1.8,0,3.3,1.5,3.3,3.3v160.3c0,1.8-1.5,3.3-3.3,3.3H99.8c-1.8,0-3.3-1.5-3.3-3.3v-69.9
			c0-1.8-1.5-3.3-3.3-3.3H82.2c-1.8,0-3.3,1.5-3.3,3.3v69.9c0,1.8-1.5,3.3-3.3,3.3H64.6c-1.8,0-3.3-1.5-3.3-3.3v-160.3
			c0-1.8,1.5-3.3,3.3-3.3h10.9c1.8,0,3.3,1.5,3.3,3.3v69.8c0,1.8,1.5,3.3,3.3,3.3h10.9c1.8,0,3.3-1.5,3.3-3.3v-69.8
			C96.5,1534.3,98,1532.8,99.8,1532.8z"/>
	</g>
	<g class="st1">
		<path class="st3" d="M285,1532.8h5.1c13.2,0,23.9,10.7,23.9,23.9v119.2c0,13.2-10.7,23.9-23.9,23.9H285
			c-13.2,0-23.9-10.7-23.9-23.9v-119.2C261.1,1543.5,271.8,1532.8,285,1532.8z M296.4,1677.3v-121.9c0-4.7-3.8-8.6-8.6-8.6h-0.4
			c-4.7,0-8.6,3.8-8.6,8.6v121.9c0,4.7,3.8,8.6,8.6,8.6h0.4C292.5,1685.9,296.4,1682,296.4,1677.3z"/>
	</g>
	<g class="st1">
		<path class="st3" d="M499.6,1532.8h10.9c1.8,0,3.3,1.5,3.3,3.3v139.8c0,13.2-10.7,23.9-23.9,23.9h-5.1
			c-13.2,0-23.9-10.7-23.9-23.9v-139.8c0-1.8,1.5-3.3,3.3-3.3h10.9c1.8,0,3.3,1.5,3.3,3.3v141.1c0,4.7,3.8,8.6,8.6,8.6h0.4
			c4.7,0,8.6-3.8,8.6-8.6v-141.1C496.3,1534.3,497.8,1532.8,499.6,1532.8z"/>
	</g>
	<g class="st1">
		<path class="st3" d="M710.5,1588.5h-10.9c-1.8,0-3.3-1.5-3.3-3.3v-29.8c0-4.7-3.8-8.6-8.6-8.6h-0.4c-4.7,0-8.6,3.8-8.6,8.6v3.8
			c0,5.7,1,11.4,3,16.8l29.1,77.6c2,5.4,3,11.1,3,16.8v5.6c0,13.2-10.7,23.9-23.9,23.9h-5.1c-13.2,0-23.9-10.7-23.9-23.9v-28.4
			c0-1.8,1.5-3.3,3.3-3.3h10.9c1.8,0,3.3,1.5,3.3,3.3v29.8c0,4.7,3.8,8.6,8.6,8.6h0.4c4.7,0,8.6-3.8,8.6-8.6v-3.8
			c0-5.7-1-11.4-3-16.8l-29.1-77.6c-2-5.4-3-11.1-3-16.8v-5.6c0-13.2,10.7-23.9,23.9-23.9h5.1c13.2,0,23.9,10.7,23.9,23.9v28.4
			C713.9,1587,712.4,1588.5,710.5,1588.5z"/>
	</g>
	<g class="st1">
		<path class="st3" d="M892.8,1546.8h-10.9c-1.8,0-3.3,1.5-3.3,3.3v55.9c0,1.8,1.5,3.3,3.3,3.3h10.9c1.8,0,3.3,1.5,3.3,3.3v7.2
			c0,1.8-1.5,3.3-3.3,3.3h-10.9c-1.8,0-3.3,1.5-3.3,3.3v56c0,1.8,1.5,3.3,3.3,3.3h10.9c1.8,0,3.3,1.5,3.3,3.3v7.2
			c0,1.8-1.5,3.3-3.3,3.3h-28.6c-1.8,0-3.3-1.5-3.3-3.3v-160.3c0-1.8,1.5-3.3,3.3-3.3h28.6c1.8,0,3.3,1.5,3.3,3.3v7.2
			C896.1,1545.3,894.6,1546.8,892.8,1546.8z"/>
	</g>
	<g class="st1">
		<path class="st3" d="M1067,1532.8h5.1c13.2,0,23.9,10.7,23.9,23.9v119.2c0,13.2-10.7,23.9-23.9,23.9h-5.1
			c-13.2,0-23.9-10.7-23.9-23.9v-119.2C1043.2,1543.5,1053.9,1532.8,1067,1532.8z M1078.4,1677.3v-121.9c0-4.7-3.8-8.6-8.6-8.6h-0.4
			c-4.7,0-8.6,3.8-8.6,8.6v121.9c0,4.7,3.8,8.6,8.6,8.6h0.4C1074.6,1685.9,1078.4,1682,1078.4,1677.3z"/>
	</g>
	<g class="st1">
		<path class="st3" d="M1275,1546.8h-10.9c-1.8,0-3.3,1.5-3.3,3.3v55.9c0,1.8,1.5,3.3,3.3,3.3h10.9c1.8,0,3.3,1.5,3.3,3.3v7.2
			c0,1.8-1.5,3.3-3.3,3.3h-10.9c-1.8,0-3.3,1.5-3.3,3.3v69.9c0,1.8-1.5,3.3-3.3,3.3h-10.9c-1.8,0-3.3-1.5-3.3-3.3v-160.3
			c0-1.8,1.5-3.3,3.3-3.3h28.6c1.8,0,3.3,1.5,3.3,3.3v7.2C1278.3,1545.3,1276.9,1546.8,1275,1546.8z"/>
	</g>
	<g class="st1">
		<path class="st3" d="M1474.9,1588.5H1464c-1.9,0-3.4-1.5-3.4-3.4v-29.8c0-4.8-3.8-8.6-8.6-8.6h-0.4c-4.8,0-8.6,3.8-8.6,8.6v121.9
			c0,4.8,3.8,8.6,8.6,8.6h0.4c4.8,0,8.6-3.8,8.6-8.6v-29.8c0-1.9,1.5-3.4,3.4-3.4h10.9c1.9,0,3.4,1.5,3.4,3.4v28.5
			c0,13.2-10.7,23.8-23.8,23.8h-5.2c-13.2,0-23.8-10.7-23.8-23.8v-119.4c0-13.2,10.7-23.8,23.8-23.8h5.2c13.2,0,23.8,10.7,23.8,23.8
			v28.5C1478.2,1587,1476.7,1588.5,1474.9,1588.5z"/>
	</g>
	<g class="st1">
		<path class="st3" d="M1649.2,1532.8h5.1c13.2,0,23.9,10.7,23.9,23.9v119.2c0,13.2-10.7,23.9-23.9,23.9h-5.1
			c-13.2,0-23.9-10.7-23.9-23.9v-119.2C1625.3,1543.5,1636,1532.8,1649.2,1532.8z M1660.5,1677.3v-121.9c0-4.7-3.8-8.6-8.6-8.6h-0.4
			c-4.7,0-8.6,3.8-8.6,8.6v121.9c0,4.7,3.8,8.6,8.6,8.6h0.4C1656.7,1685.9,1660.5,1682,1660.5,1677.3z"/>
	</g>
	<g class="st1">
		<path class="st3" d="M1857.1,1546.8h-10.9c-1.8,0-3.3,1.5-3.3,3.3v55.9c0,1.8,1.5,3.3,3.3,3.3h10.9c1.8,0,3.3,1.5,3.3,3.3v7.2
			c0,1.8-1.5,3.3-3.3,3.3h-10.9c-1.8,0-3.3,1.5-3.3,3.3v69.9c0,1.8-1.5,3.3-3.3,3.3h-10.9c-1.8,0-3.3-1.5-3.3-3.3v-160.3
			c0-1.8,1.5-3.3,3.3-3.3h28.6c1.8,0,3.3,1.5,3.3,3.3v7.2C1860.5,1545.3,1859,1546.8,1857.1,1546.8z"/>
	</g>
	<g class="st1">
		<path class="st3" d="M2039.4,1546.8h-10.9c-1.8,0-3.3,1.5-3.3,3.3v55.9c0,1.8,1.5,3.3,3.3,3.3h10.9c1.8,0,3.3,1.5,3.3,3.3v7.2
			c0,1.8-1.5,3.3-3.3,3.3h-10.9c-1.8,0-3.3,1.5-3.3,3.3v69.9c0,1.8-1.5,3.3-3.3,3.3h-10.9c-1.8,0-3.3-1.5-3.3-3.3v-160.3
			c0-1.8,1.5-3.3,3.3-3.3h28.6c1.8,0,3.3,1.5,3.3,3.3v7.2C2042.7,1545.3,2041.2,1546.8,2039.4,1546.8z"/>
	</g>
	<g class="st1">
		<path class="st3" d="M2221.7,1546.8h-10.9c-1.8,0-3.3,1.5-3.3,3.3v55.9c0,1.8,1.5,3.3,3.3,3.3h10.9c1.8,0,3.3,1.5,3.3,3.3v7.2
			c0,1.8-1.5,3.3-3.3,3.3h-10.9c-1.8,0-3.3,1.5-3.3,3.3v56c0,1.8,1.5,3.3,3.3,3.3h10.9c1.8,0,3.3,1.5,3.3,3.3v7.2
			c0,1.8-1.5,3.3-3.3,3.3h-28.6c-1.8,0-3.3-1.5-3.3-3.3v-160.3c0-1.8,1.5-3.3,3.3-3.3h28.6c1.8,0,3.3,1.5,3.3,3.3v7.2
			C2225,1545.3,2223.5,1546.8,2221.7,1546.8z"/>
	</g>
	<g class="st1">
		<path class="st3" d="M2403.9,1546.8H2393c-1.8,0-3.3,1.5-3.3,3.3v55.9c0,1.8,1.5,3.3,3.3,3.3h10.9c1.8,0,3.3,1.5,3.3,3.3v7.2
			c0,1.8-1.5,3.3-3.3,3.3H2393c-1.8,0-3.3,1.5-3.3,3.3v56c0,1.8,1.5,3.3,3.3,3.3h10.9c1.8,0,3.3,1.5,3.3,3.3v7.2
			c0,1.8-1.5,3.3-3.3,3.3h-28.6c-1.8,0-3.3-1.5-3.3-3.3v-160.3c0-1.8,1.5-3.3,3.3-3.3h28.6c1.8,0,3.3,1.5,3.3,3.3v7.2
			C2407.3,1545.3,2405.8,1546.8,2403.9,1546.8z"/>
	</g>
</g>
</svg>
